<svg xmlns:dc="http://purl.org/dc/elements/1.1/" xmlns:cc="http://creativecommons.org/ns#" xmlns:rdf="http://www.w3.org/1999/02/22-rdf-syntax-ns#" xmlns:svg="http://www.w3.org/2000/svg" xmlns="http://www.w3.org/2000/svg" xmlns:xlink="http://www.w3.org/1999/xlink" id="svg275738" viewBox="0 0 1024 768" height="768px" width="1024px" version="1.1">
  <metadata id="metadata275744">
    <rdf:rdf>
      <cc:work rdf:about="">
        <dc:format>image/svg+xml</dc:format>
        <dc:type rdf:resource="http://purl.org/dc/dcmitype/StillImage"></dc:type>
      </cc:work>
    </rdf:rdf>
  </metadata>
  <defs id="defs275742"></defs>
  <linearGradient spreadMethod="pad" y2="30%" x2="-10%" y1="120%" x1="30%" id="3d_gradient2-logo-202b19bd-f5ca-46f0-bbab-737c8b3ab8df">
    <stop id="stop275719" stop-opacity="1" stop-color="#ffffff" offset="0%"></stop>
    <stop id="stop275721" stop-opacity="1" stop-color="#000000" offset="100%"></stop>
  </linearGradient>
  <linearGradient gradientTransform="rotate(-30)" spreadMethod="pad" y2="30%" x2="-10%" y1="120%" x1="30%" id="3d_gradient3-logo-202b19bd-f5ca-46f0-bbab-737c8b3ab8df">
    <stop id="stop275724" stop-opacity="1" stop-color="#ffffff" offset="0%"></stop>
    <stop id="stop275726" stop-opacity="1" stop-color="#cccccc" offset="50%"></stop>
    <stop id="stop275728" stop-opacity="1" stop-color="#000000" offset="100%"></stop>
  </linearGradient>
  <g id="logo-group">
    <image xlink:href="" id="container" x="272" y="144" width="480" height="480" transform="translate(0 0)" style="display: none;"></image>
    <g id="logo-center" transform="translate(0 0)">
      <image xlink:href="" id="icon_container" x="0" y="0" style="display: none;"></image>
      <g id="slogan" style="font-style:normal;font-weight:400;font-size:32px;line-height:1;font-family:Montserrat;font-variant-ligatures:none;text-align:center;text-anchor:middle" transform="translate(0 0)"></g>
      <g id="title" style="font-style:normal;font-weight:700;font-size:72px;line-height:1;font-family:'Brandmark1 Bold';font-variant-ligatures:normal;text-align:center;text-anchor:middle" transform="translate(0 0)">
        <path id="path275747" style="font-style:normal;font-weight:700;font-size:72px;line-height:1;font-family:'Brandmark1 Bold';font-variant-ligatures:normal;text-align:center;text-anchor:middle" d="m 336.03537,2.52 h 11.30401 v -56.16 l -11.30401,3.6 z" stroke-width="0" stroke-linejoin="miter" stroke-miterlimit="2" fill="#b7b4af" stroke="#b7b4af" transform="translate(0 308.26756) translate(226.9901506999999 44.60359999999999) scale(1.11) translate(-336.03537 53.64)"></path>
        <path id="path275749" style="font-style:normal;font-weight:700;font-size:72px;line-height:1;font-family:'Brandmark1 Bold';font-variant-ligatures:normal;text-align:center;text-anchor:middle" d="m 391.50687,2.52 h 10.29601 v -56.16 h -11.30401 v 35.424 l -25.128,-35.424 h -10.008 V 2.52 h 11.304 v -35.064 z" stroke-width="0" stroke-linejoin="miter" stroke-miterlimit="2" fill="#b7b4af" stroke="#b7b4af" transform="translate(0 308.26756) translate(270.64367569999985 44.60359999999999) scale(1.11) translate(-355.36287 53.64)"></path>
        <path id="path275751" style="font-style:normal;font-weight:700;font-size:72px;line-height:1;font-family:'Brandmark1 Bold';font-variant-ligatures:normal;text-align:center;text-anchor:middle" d="m 426.7835,2.952 c 5.112,0 9.864,-1.44 13.392,-4.176 1.944,-1.512 3.456,-3.312 4.536,-5.4 1.152,-2.16 1.728,-4.68 1.728,-7.344 0,-4.896 -1.728,-8.64 -5.184,-11.52 -2.952,-2.376 -6.84,-3.888 -10.944,-5.544 -0.432,-0.144 -0.864,-0.36 -1.368,-0.504 v 0 c -2.88,-1.152 -5.616,-2.16 -7.344,-3.384 -1.224,-0.864 -2.016,-1.728 -1.944,-3.384 0,-3.672 3.6,-5.04 6.624,-5.04 3.24,0 7.128,1.728 10.656,4.608 l 2.016,1.656 6.912,-8.928 -1.872,-1.584 c -5.328,-4.248 -11.448,-6.552 -17.712,-6.552 -4.896,0 -9.432,1.656 -12.816,4.536 -3.456,3.024 -5.328,7.128 -5.328,11.52 0,2.592 0.504,4.896 1.584,6.912 0.936,1.872 2.304,3.456 4.104,4.968 3.168,2.448 7.128,4.032 11.16,5.544 0.288,0.144 0.576,0.216 0.792,0.288 2.952,1.152 5.544,2.088 7.128,3.312 1.368,1.008 1.944,2.088 1.944,3.816 0,1.656 -0.648,2.88 -1.872,3.816 -1.44,1.008 -3.6,1.512 -6.12,1.512 -2.16,0 -4.464,-0.504 -6.48,-1.44 -2.232,-1.08 -4.176,-2.592 -5.688,-4.464 l -1.944,-2.448 -7.416,8.928 1.512,1.584 c 5.256,5.616 12.312,8.712 19.944,8.712 z" stroke-width="0" stroke-linejoin="miter" stroke-miterlimit="2" fill="#b7b4af" stroke="#b7b4af" transform="translate(0 308.26756) translate(348.3044149999999 44.04416) scale(1.11) translate(-405.3275 54.144)"></path>
        <path id="path275753" style="font-style:normal;font-weight:700;font-size:72px;line-height:1;font-family:'Brandmark1 Bold';font-variant-ligatures:normal;text-align:center;text-anchor:middle" d="m 461.37275,2.52 h 11.304 v -45.432 h 15.48 V -53.64 h -42.048 v 10.728 h 15.264 z" stroke-width="0" stroke-linejoin="miter" stroke-miterlimit="2" fill="#b7b4af" stroke="#b7b4af" transform="translate(0 308.26756) translate(415.77160249999986 44.60359999999999) scale(1.11) translate(-446.10875 53.64)"></path>
        <path id="path275755" style="font-style:normal;font-weight:700;font-size:72px;line-height:1;font-family:'Brandmark1 Bold';font-variant-ligatures:normal;text-align:center;text-anchor:middle" d="m 520.43187,-18.576 c 2.952,-1.08 5.328,-2.736 7.20001,-4.824 2.592,-3.024 3.95999,-7.056 3.95999,-11.88 0,-5.328 -1.656,-9.864 -4.752,-13.032 -1.72799,-1.728 -3.816,-3.096 -6.264,-3.96 -2.44799,-0.864 -5.32799,-1.368 -8.42399,-1.368 H 491.48787 V 2.52 h 11.304 v -45.432 h 8.496 c 2.88,0 5.184,0.72 6.624,1.944 1.44,1.224 2.16,3.096 2.16,5.544 0,2.376 -0.72,4.248 -2.088,5.472 -1.656,1.512 -4.176,2.232 -7.56,2.232 h -2.16 v 11.016 L 521.58388,2.52 h 13.67999 z" stroke-width="0" stroke-linejoin="miter" stroke-miterlimit="2" fill="#b7b4af" stroke="#b7b4af" transform="translate(0 308.26756) translate(488.3424256999998 44.60359999999999) scale(1.11) translate(-491.48787 53.64)"></path>
        <path id="path275757" style="font-style:normal;font-weight:700;font-size:72px;line-height:1;font-family:'Brandmark1 Bold';font-variant-ligatures:normal;text-align:center;text-anchor:middle" d="m 558.08787,2.952 c 2.95201,0 5.90401,-0.576 8.64001,-1.728 2.592,-1.152 4.96799,-2.736 7.05599,-4.752 2.01601,-2.088 3.6,-4.464 4.75201,-7.056 1.15199,-2.808 1.72799,-5.688 1.72799,-8.712 V -53.64 h -11.304 v 34.344 c 0,6.048 -4.89599,10.944 -10.872,10.944 -6.04799,0 -10.944,-4.896 -10.944,-10.944 V -53.64 h -11.304 v 34.344 c 0,3.024 0.57601,5.904 1.728,8.712 1.152,2.592 2.736,4.968 4.75201,7.056 2.08799,2.016 4.46399,3.6 7.05599,4.752 2.808,1.152 5.68801,1.728 8.712,1.728 z" stroke-width="0" stroke-linejoin="miter" stroke-miterlimit="2" fill="#b7b4af" stroke="#b7b4af" transform="translate(0 308.26756) translate(559.7731456999999 44.60359999999999) scale(1.11) translate(-535.83987 53.64)"></path>
        <path id="path275759" style="font-style:normal;font-weight:700;font-size:72px;line-height:1;font-family:'Brandmark1 Bold';font-variant-ligatures:normal;text-align:center;text-anchor:middle" d="m 587.6135,2.52 h 11.304 v -56.16 l -11.304,3.6 z" stroke-width="0" stroke-linejoin="miter" stroke-miterlimit="2" fill="#b7b4af" stroke="#b7b4af" transform="translate(0 308.26756) translate(639.441875 44.60359999999999) scale(1.11) translate(-587.6135 53.64)"></path>
        <path id="path275761" style="font-style:normal;font-weight:700;font-size:72px;line-height:1;font-family:'Brandmark1 Bold';font-variant-ligatures:normal;text-align:center;text-anchor:middle" d="m 635.885,-18.576 c 2.952,-1.08 5.328,-2.736 7.2,-4.824 2.592,-3.024 3.96,-7.056 3.96,-11.88 0,-5.328 -1.656,-9.864 -4.752,-13.032 -1.728,-1.728 -3.816,-3.096 -6.264,-3.96 -2.448,-0.864 -5.328,-1.368 -8.424,-1.368 H 606.941 V 2.52 h 11.304 v -45.432 h 8.496 c 2.88,0 5.184,0.72 6.624,1.944 1.44,1.224 2.16,3.096 2.16,5.544 0,2.376 -0.72,4.248 -2.088,5.472 -1.656,1.512 -4.176,2.232 -7.56,2.232 h -2.16 v 11.016 l 13.32,19.224 h 13.68 z" stroke-width="0" stroke-linejoin="miter" stroke-miterlimit="2" fill="#b7b4af" stroke="#b7b4af" transform="translate(0 308.26756) translate(683.0954 44.60359999999999) scale(1.11) translate(-606.941 53.64)"></path>
        <path id="path275763" style="font-style:normal;font-weight:700;font-size:72px;line-height:1;font-family:'Brandmark1 Bold';font-variant-ligatures:normal;text-align:center;text-anchor:middle" d="m 653.20663,2.52 h 36.36 V -8.208 h -25.05601 v -11.88 h 25.05601 v -10.728 h -25.05601 v -12.096 h 25.05601 V -53.64 h -36.36 z" stroke-width="0" stroke-linejoin="miter" stroke-miterlimit="2" fill="#b7b4af" stroke="#b7b4af" transform="translate(0 308.26756) translate(756.6502493 44.60359999999999) scale(1.11) translate(-653.20663 53.64)"></path>
      </g>
      <image xlink:href="" id="icon" x="0" y="0" style="display: none;"></image>
    </g>
  </g>
</svg>