<svg width="995" height="300" viewBox="0 0 995 300" fill="none" xmlns="http://www.w3.org/2000/svg">
<path d="M78.0691 43.129C52.9621 43.129 33.2338 61.0576 32.1841 84.8335C31.5052 100.178 38.1652 121.029 73.7431 133.22C97.9648 141.521 97.5061 151.889 97.3567 155.295C96.9391 164.739 88.822 171.593 78.055 171.593C65.0863 171.593 59.9281 165.177 57.8818 159.793L33.004 169.216C35.5819 176.008 46.4518 198.171 78.052 198.171C103.159 198.171 122.888 180.241 123.937 156.467C124.615 141.123 117.958 120.272 82.3765 108.079C58.156 99.7774 58.615 89.4118 58.7659 86.005C59.1838 76.5613 67.3009 69.7054 78.0679 69.7054C91.0348 69.7054 96.1945 76.1233 98.2405 81.5077L123.118 72.0841C120.541 65.2909 109.671 43.1272 78.0706 43.1272" fill="white"/>
<path d="M192.714 102.851C171.201 102.851 152.371 117.301 146.803 138.08C141.235 158.86 150.318 180.788 168.948 191.545C187.578 202.302 211.11 199.204 226.322 183.992L207.851 165.521C201.728 171.643 192.52 173.475 184.521 170.162C176.521 166.848 171.305 159.042 171.305 150.383C171.305 141.725 176.521 133.918 184.521 130.605C192.52 127.291 201.728 129.123 207.851 135.245L226.322 116.772C217.429 107.829 205.327 102.816 192.714 102.851Z" fill="white"/>
<path d="M270.695 47.4472H244.572V198.553H270.695V47.4472Z" fill="white"/>
<path d="M286.733 103.49H286.73C281.23 103.485 275.784 104.56 270.699 106.657V106.671L270.695 106.658V106.657C254.901 113.17 244.589 128.56 244.572 145.645V198.553H270.695V145.647V141.115L270.699 141.081V145.647C270.699 136.792 277.877 129.615 286.731 129.615C295.586 129.615 302.764 136.792 302.764 145.647V198.554H328.887V145.647C328.861 122.376 310.004 103.517 286.733 103.49Z" fill="white"/>
<path d="M270.695 106.657C254.901 113.17 244.589 128.56 244.572 145.645V198.553H270.695V145.647V141.115V106.658V106.657Z" fill="white"/>
<path d="M397.473 103.175C378.248 103.174 360.916 114.755 353.559 132.516C346.202 150.277 350.268 170.721 363.862 184.315C377.456 197.909 397.9 201.976 415.662 194.619C433.423 187.261 445.003 169.929 445.002 150.705C444.971 124.468 423.71 103.206 397.473 103.175ZM397.473 172.111C388.813 172.111 381.007 166.896 377.692 158.896C374.378 150.895 376.209 141.687 382.332 135.564C388.455 129.44 397.664 127.608 405.664 130.922C413.664 134.235 418.881 142.042 418.881 150.702C418.867 162.519 409.291 172.096 397.473 172.111Z" fill="white"/>
<path d="M511.473 103.175C492.248 103.174 474.916 114.755 467.559 132.516C460.202 150.277 464.268 170.721 477.862 184.315C491.456 197.909 511.9 201.976 529.662 194.619C547.423 187.261 559.003 169.929 559.002 150.705C558.971 124.468 537.71 103.206 511.473 103.175ZM511.473 172.111C502.813 172.111 495.007 166.896 491.692 158.896C488.378 150.895 490.209 141.687 496.332 135.564C502.455 129.44 511.664 127.608 519.664 130.922C527.664 134.235 532.881 142.042 532.881 150.702C532.867 162.519 523.291 172.096 511.473 172.111Z" fill="white"/>
<path d="M606.368 47.4472H580.244V198.552H606.368V47.4472Z" fill="white"/>
<path d="M693.603 103.175H656.546C639.809 103.175 626.241 116.743 626.241 133.48C626.241 150.217 639.809 163.785 656.546 163.785H672.138C674.439 163.785 676.303 165.65 676.303 167.95C676.303 170.25 674.439 172.115 672.138 172.115H635.081V198.239H672.546C689.188 198.008 702.527 184.392 702.414 167.748C702.302 151.105 688.781 137.67 672.137 137.665H656.544C654.235 137.665 652.363 135.793 652.363 133.484C652.363 131.175 654.235 129.302 656.544 129.302H693.601V103.18" fill="white"/>
<path d="M748.726 103.41H722.603V198.344H748.726V103.41Z" fill="white"/>
<path d="M748.726 47.6632H722.603V75.2374H748.726V47.6632Z" fill="white"/>
<path d="M864.808 47.2312H838.685V198.335H864.808V47.2312Z" fill="white"/>
<path d="M838.686 108.373C832.051 105.012 824.717 103.265 817.278 103.273C797.621 103.269 779.988 115.366 772.917 133.708C765.847 152.05 770.797 172.853 785.372 186.044C799.946 199.236 821.138 202.094 838.686 193.235C854.695 185.146 864.795 168.742 864.809 150.805C864.795 132.867 854.695 116.463 838.686 108.373ZM817.278 172.212C805.455 172.212 795.871 162.627 795.871 150.805C795.871 138.981 805.455 129.397 817.278 129.397C829.096 129.41 838.673 138.987 838.686 150.805C838.686 162.627 829.101 172.212 817.278 172.212Z" fill="white"/>
<path d="M864.808 150.764C864.778 132.843 854.683 116.456 838.686 108.373C838.686 108.373 838.685 108.373 838.685 108.372V150.776C838.685 150.785 838.686 150.795 838.686 150.805C838.686 150.814 838.685 150.824 838.685 150.833V193.236C838.685 193.236 838.686 193.235 838.686 193.235C854.683 185.151 864.778 168.766 864.808 150.845V150.764Z" fill="white"/>
<path d="M982.367 144.453L977.237 132.32L977.156 132.128L977.14 132.09L977.071 131.931L977.055 131.895L976.974 131.709L976.957 131.667L976.902 131.542L976.855 131.438L976.835 131.391C975.561 128.551 974.012 125.843 972.21 123.304H972.207L886.562 158.681C887.845 166.515 891.114 173.889 896.057 180.101L982.367 144.453Z" fill="white"/>
<path d="M934.392 171.718C930.515 171.857 926.683 170.847 923.378 168.815L922.518 169.171L922.516 169.171L922.516 169.171L923.377 168.815C923.102 168.638 922.833 168.453 922.569 168.259C917.839 164.808 912.078 158.718 913.375 147.606V147.58C914.168 140.298 918.774 133.987 925.468 131.011C927.806 129.978 930.336 129.449 932.892 129.458C937.473 129.465 941.923 130.989 945.545 133.793C945.682 133.909 945.817 134.028 945.952 134.152L945.955 134.151C952.908 140.522 956.012 155.271 956.025 155.338L982.367 144.453L977.237 132.32L977.156 132.128L977.14 132.09L977.071 131.931L977.055 131.895L976.974 131.709L976.957 131.667L976.902 131.542L976.855 131.438L976.835 131.391C976.783 131.275 976.715 131.167 976.662 131.051C976.128 129.882 975.544 128.748 974.926 127.638C974.738 127.303 974.539 126.975 974.344 126.645C973.77 125.673 973.166 124.727 972.53 123.806C972.417 123.643 972.325 123.466 972.21 123.304H972.207L972.19 123.312C963.39 110.904 949.026 103.276 933.437 103.297L933.449 103.293C907.21 103.321 885.946 124.585 885.917 150.823C885.917 153.506 886.191 156.11 886.611 158.66L886.562 158.681C886.627 159.076 886.719 159.465 886.794 159.857C886.866 160.234 886.935 160.609 887.015 160.982C887.292 162.264 887.616 163.531 887.999 164.781C888.101 165.114 888.219 165.438 888.328 165.767C888.669 166.798 889.045 167.814 889.457 168.817C889.589 169.138 889.71 169.465 889.849 169.782C890.354 170.938 890.914 172.07 891.513 173.182C891.711 173.549 891.919 173.909 892.126 174.271C892.67 175.22 893.244 176.151 893.855 177.06C893.998 177.274 894.129 177.498 894.276 177.709C894.843 178.524 895.437 179.321 896.057 180.101L896.058 180.1C896.058 180.1 896.058 180.1 896.058 180.101L896.096 180.085C896.096 180.085 896.096 180.085 896.096 180.085L896.097 180.085H896.096C904.983 191.252 918.917 198.355 934.906 198.355C949.081 198.355 960.448 193.832 972.898 183.234L955.969 163.34C948.253 169.904 942.228 171.718 934.392 171.718Z" fill="white"/>
<path d="M972.19 123.312L945.95 134.15C945.951 134.151 945.951 134.151 945.952 134.152L945.955 134.151C952.898 140.512 956.001 155.222 956.024 155.333L982.367 144.453L977.237 132.32L977.156 132.128L977.14 132.09L977.072 131.931L977.055 131.895L976.974 131.709L976.957 131.667L976.902 131.542L976.855 131.438L976.835 131.391C976.783 131.275 976.715 131.167 976.662 131.051C976.253 130.156 975.793 129.296 975.332 128.436C975.191 128.173 975.071 127.899 974.925 127.637C974.738 127.303 974.539 126.975 974.344 126.645C973.955 125.986 973.532 125.357 973.115 124.722C972.807 124.253 972.535 123.762 972.21 123.304H972.207L972.19 123.312H972.19V123.312Z" fill="white"/>
<path d="M896.058 180.1L896.096 180.085L923.379 168.816C923.379 168.816 923.379 168.815 923.378 168.815L922.518 169.171L922.516 169.171L922.516 169.171L923.377 168.815C923.102 168.638 922.833 168.453 922.569 168.259C917.839 164.808 912.078 158.718 913.375 147.606V147.605L886.562 158.681C886.627 159.076 886.719 159.465 886.794 159.857C886.803 159.906 886.813 159.953 886.822 160.002C886.886 160.33 886.945 160.658 887.016 160.984C887.292 162.265 887.617 163.532 887.999 164.781C888.101 165.114 888.219 165.438 888.328 165.767C888.669 166.798 889.045 167.814 889.457 168.817C889.589 169.138 889.71 169.465 889.849 169.782C890.354 170.938 890.914 172.07 891.512 173.182C891.533 173.22 891.556 173.258 891.577 173.297C891.756 173.624 891.94 173.947 892.126 174.271C892.669 175.219 893.243 176.149 893.853 177.058C893.998 177.274 894.129 177.498 894.277 177.711C894.844 178.525 895.437 179.322 896.057 180.101L896.058 180.1H896.058V180.1Z" fill="white"/>
</svg>
