<svg xmlns:dc="http://purl.org/dc/elements/1.1/" xmlns:cc="http://creativecommons.org/ns#" xmlns:rdf="http://www.w3.org/1999/02/22-rdf-syntax-ns#" xmlns:svg="http://www.w3.org/2000/svg" xmlns="http://www.w3.org/2000/svg" xmlns:xlink="http://www.w3.org/1999/xlink" id="svg24727" viewBox="40 260 924 308" height="300px" width="995px" version="1.1">
  <metadata id="metadata24733">
    <rdf:rdf>
      <cc:work rdf:about="">
        <dc:format>image/svg+xml</dc:format>
        <dc:type rdf:resource="http://purl.org/dc/dcmitype/StillImage"></dc:type>
      </cc:work>
    </rdf:rdf>
  </metadata>
  <defs id="defs24731"></defs>
  <linearGradient spreadMethod="pad" y2="30%" x2="-10%" y1="120%" x1="30%" id="3d_gradient2-logo-f92f2ae5-71a5-4ee4-836c-ca508971a0c3">
    <stop id="stop24708" stop-opacity="1" stop-color="#ffffff" offset="0%"></stop>
    <stop id="stop24710" stop-opacity="1" stop-color="#000000" offset="100%"></stop>
  </linearGradient>
  <linearGradient gradientTransform="rotate(-30)" spreadMethod="pad" y2="30%" x2="-10%" y1="120%" x1="30%" id="3d_gradient3-logo-f92f2ae5-71a5-4ee4-836c-ca508971a0c3">
    <stop id="stop24713" stop-opacity="1" stop-color="#ffffff" offset="0%"></stop>
    <stop id="stop24715" stop-opacity="1" stop-color="#cccccc" offset="50%"></stop>
    <stop id="stop24717" stop-opacity="1" stop-color="#000000" offset="100%"></stop>
  </linearGradient>
  <g id="logo-group">
    <image xlink:href="" id="container" x="272" y="144" width="480" height="480" transform="translate(0 0)" style="display: none;"></image>
    <g id="logo-center" transform="translate(0 0)">
      <image xlink:href="" id="icon_container" x="0" y="0" style="display: none;"></image>
      <g id="slogan" style="font-style:oblique;font-weight:300;font-size:32px;line-height:1;font-family:Lato;font-variant-ligatures:none;text-align:center;text-anchor:middle" transform="translate(0 0)"></g>
      <g id="title" style="font-style:normal;font-weight:700;font-size:72px;line-height:1;font-family:'Brandmark Sans 4 Spectrum';font-variant-ligatures:normal;text-align:center;text-anchor:middle" transform="translate(0 0)">
        <g id="path24736" aria-label="S" transform="translate(0 361.80496000000005) translate(24.229282719999958 -57.527680000000004) scale(3.08) translate(-363.34246 51.696)"> <path class="c3" d="M100.0029,74.1599c-8.369,0-14.94508,5.9762-15.295,13.9015c-0.2263,5.1147,1.9937,12.0652,13.853,16.1289 c8.07392,2.767,7.921,6.2228,7.8712,7.3583c-0.1392,3.1479-2.8449,5.4327-6.4339,5.4327c-4.3229,0-6.0423-2.1388-6.72438-3.9335 l-8.29262,3.141c0.8593,2.264,4.48261,9.6519,15.016,9.6519c8.369,0,14.9452-5.9768,15.2949-13.9015 c0.226-5.1147-1.993-12.0649-13.8534-16.1294c-8.0735-2.7671-7.9205-6.2223-7.8702-7.3579 c0.13932-3.1479,2.845-5.4332,6.434-5.4332c4.32232,0,6.04221,2.1393,6.72421,3.9341l8.29259-3.1412 c-0.8591-2.2644-4.4824-9.6523-15.0159-9.6523" transform="translate(278.649613 -125.8553)" stroke-width="0" stroke-linejoin="miter" stroke-miterlimit="2" fill="#838383" stroke="#838383"></path> </g>
        <g id="path24738" aria-label="c" transform="translate(0 361.80496000000005) translate(140.28362112000005 3.788959999999989) scale(3.08) translate(-399.02244 31.788)"> <path class="c1" d="M102.321,84.1562c-7.1709,0-13.4477,4.81641-15.3037,11.7429 c-1.8559,6.9266,1.1717,14.2361,7.38181,17.8216c6.21,3.58559,14.05409,2.55299,19.12479-2.5175l-6.1572-6.1573 c-2.04089,2.0409-5.1102,2.6515-7.7767,1.547c-2.6665-1.1045-4.40518-3.7066-4.40518-6.5928s1.73869-5.4883,4.40518-6.5928 c2.6665-1.1045,5.73582-0.494,7.7767,1.5469l6.1572-6.1577C110.5593,85.8154,106.5253,84.1445,102.321,84.1562" transform="translate(312.546411 -115.944139)" stroke-width="0" stroke-linejoin="miter" stroke-miterlimit="2" fill="#080000" stroke="#080000"></path> </g>
        <g id="path24740" aria-label="h" transform="translate(0 361.80496000000005) translate(242.32710111999995 -53.092479999999995) scale(3.08) translate(-430.15344 50.256)"> <rect x="85.94749" y="74.8157" class="c1" width="8.7076" height="50.3686" transform="translate(344.205953 -125.071697)" stroke-width="0" stroke-linejoin="miter" stroke-miterlimit="2" fill="#080000" stroke="#080000"></rect> <path class="c3" d="M100.0012,93.4965h-0.001c-1.8332-0.0017-3.6488,0.3569-5.3436,1.0557v0.0049l-0.0015-0.0044v-0.0005 c-5.2646,2.1711-8.7019,7.3012-8.7076,12.9961v17.636h8.7076V107.5488v-1.5105l0.0015-0.0115v1.522 c0-2.9515,2.3927-5.34399,5.34409-5.34399c2.9514,0,5.34412,2.39249,5.34412,5.34399v17.6359h8.70768v-17.6359 C114.0439,99.7919,107.75809,93.5055,100.0012,93.4965z" transform="translate(344.205953 -125.071697)" stroke-width="0" stroke-linejoin="miter" stroke-miterlimit="2" fill="#838383" stroke="#838383"></path> <path class="c2" d="M94.6551,94.5522c-5.2646,2.1711-8.7019,7.3012-8.7076,12.9961v17.636h8.7076V107.5488v-1.5105V94.5527 V94.5522z" transform="translate(344.205953 -125.071697)" stroke-width="0" stroke-linejoin="miter" stroke-miterlimit="2" fill="#454141" stroke="#454141"></path> </g>
        <g id="path24742" aria-label="o" transform="translate(0 361.80496000000005) translate(350.50440112 4.121600000000001) scale(3.08) translate(-463.27594 31.68)"> <path class="c1" d="M100.0007,84.1562c-6.4082-0.0003-12.1856,3.8599-14.638,9.7803 c-2.4523,5.9204-1.0969,12.7351,3.43439,17.2664c4.5313,4.5313,11.346,5.8868,17.2665,3.43439 c5.9204-2.4524,9.7805-8.2298,9.7802-14.638C115.8335,91.2537,108.7463,84.1666,100.0007,84.1562 M100.0007,107.1347 c-2.88651,0.00021-5.4888-1.7384-6.5935-4.405c-1.1048-2.6668-0.4943-5.7364,1.54659-7.7774 c2.041-2.0411,5.1106-2.6518,7.7774-1.5472c2.6667,1.1045,4.4055,3.7068,4.4055,6.5933 C107.1322,103.9376,103.94,107.1299,100.0007,107.1347" transform="translate(379.11976 -115.8362)" stroke-width="0" stroke-linejoin="miter" stroke-miterlimit="2" fill="#080000" stroke="#080000"></path> </g>
        <g id="path24744" aria-label="o" transform="translate(0 361.80496000000005) translate(467.54440112000003 4.121600000000001) scale(3.08) translate(-499.27594 31.68)"> <path class="c1" d="M100.0007,84.1562c-6.4082-0.0003-12.1856,3.8599-14.638,9.7803 c-2.4523,5.9204-1.0969,12.7351,3.43439,17.2664c4.5313,4.5313,11.346,5.8868,17.2665,3.43439 c5.9204-2.4524,9.7805-8.2298,9.7802-14.638C115.8335,91.2537,108.7463,84.1666,100.0007,84.1562 M100.0007,107.1347 c-2.88651,0.00021-5.4888-1.7384-6.5935-4.405c-1.1048-2.6668-0.4943-5.7364,1.54659-7.7774 c2.041-2.0411,5.1106-2.6518,7.7774-1.5472c2.6667,1.1045,4.4055,3.7068,4.4055,6.5933 C107.1322,103.9376,103.94,107.1299,100.0007,107.1347" transform="translate(415.11976 -115.8362)" stroke-width="0" stroke-linejoin="miter" stroke-miterlimit="2" fill="#080000" stroke="#080000"></path> </g>
        <g id="path24746" aria-label="l" transform="translate(0 361.80496000000005) translate(586.95021072 -53.092479999999995) scale(3.08) translate(-536.04406 50.256)"> <polyline class="c1" points="104.3541,74.8159 95.6459,74.8159 95.6459,125.1841 104.3541,125.1841 104.3541,74.8159 " transform="translate(440.39816 -125.0719)" stroke-width="0" stroke-linejoin="miter" stroke-miterlimit="2" fill="#080000" stroke="#080000"></polyline> </g>
        <g id="path24748" aria-label="s" transform="translate(0 361.80496000000005) translate(634.1739411200002 4.121600000000001) scale(3.08) translate(-549.37644 31.68)"> <path class="c3" d="M109.75822,84.1561H97.4059c-5.579,0-10.1016,4.52271-10.1016,10.1016 c0,5.579,4.5226,10.1017,10.1016,10.1017h5.19753c0.76678,0,1.38837,0.6216,1.38837,1.3884c0,0.7667-0.6216,1.3883-1.38837,1.3883 H90.2511v8.7078h12.48833c5.54727-0.07681,9.9935-4.6155,9.95599-10.16341c-0.0375-5.5478-4.54453-10.02599-10.09252-10.02779 h-5.19747c-0.76973,0-1.39373-0.624-1.39373-1.3938c0-0.7696,0.624-1.39371,1.39373-1.39371h12.35229v-8.7076" transform="translate(462.07214 -115.8361)" stroke-width="0" stroke-linejoin="miter" stroke-miterlimit="2" fill="#838383" stroke="#838383"></path> </g>
        <g id="path24750" aria-label="i" transform="translate(0 361.80496000000005) translate(733.1058511200005 -52.870720000000006) scale(3.08) translate(-579.49719 50.184)"> <polyline class="c1" points="104.3538,93.4688 95.64619,93.4688 95.64619,125.1134 104.3538,125.1134 104.3538,93.4688 " transform="translate(483.851 -125.0706)" stroke-width="0" stroke-linejoin="miter" stroke-miterlimit="2" fill="#080000" stroke="#080000"></polyline> <polyline class="c3" points="104.3538,74.8866 95.64619,74.8866 95.64619,84.078 104.3538,84.078 104.3538,74.8866 " transform="translate(483.851 -125.0706)" stroke-width="0" stroke-linejoin="miter" stroke-miterlimit="2" fill="#838383" stroke="#838383"></polyline> </g>
        <g id="path24752" aria-label="d" transform="translate(0 361.80496000000005) translate(781.4937907200002 -53.31424000000001) scale(3.08) translate(-593.20756 50.328)"> <rect x="107.1377" y="74.8159" class="c1" width="8.70763" height="50.368" transform="translate(509.053388 -125.143903)" stroke-width="0" stroke-linejoin="miter" stroke-miterlimit="2" fill="#080000" stroke="#080000"></rect> <path class="c3" d="M107.1382,95.1966c-2.2117-1.1204-4.6566-1.7029-7.136-1.7c-6.5526-0.0015-12.4302,4.0308-14.787,10.145 c-2.3569,6.114-0.70689,13.0481,4.15141,17.4453c4.8581,4.3973,11.922,5.3499,17.7716,2.397 c5.33633-2.6965,8.70293-8.16451,8.70763-14.1435C115.84113,103.3613,112.47453,97.8931,107.1382,95.1966z M100.0022,116.4763 c-3.941,0-7.1359-3.195-7.1359-7.1359c0-3.9412,3.1949-7.136,7.1359-7.136c3.93922,0.0046,7.1315,3.1967,7.136,7.136 C107.1382,113.2813,103.9432,116.4763,100.0022,116.4763z" transform="translate(509.053388 -125.143903)" stroke-width="0" stroke-linejoin="miter" stroke-miterlimit="2" fill="#838383" stroke="#838383"></path> <path class="c2" d="M115.84532,109.3267c-0.0099-5.9734-3.3749-11.4358-8.70712-14.1301c-0.0002,0-0.00031,0-0.0005-0.00031 v14.13451c0,0.0032,0.0005,0.00639,0.0005,0.0096c0,0.0031-0.0005,0.0063-0.0005,0.0095v14.1343 c0.0002,0,0.00031-0.0003,0.0005-0.0003c5.33222-2.6946,8.69722-8.1565,8.70712-14.12991V109.3267z" transform="translate(509.053388 -125.143903)" stroke-width="0" stroke-linejoin="miter" stroke-miterlimit="2" fill="#454141" stroke="#454141"></path> </g>
        <g id="path24754" aria-label="e" transform="translate(0 361.80496000000005) translate(900.7745215200002 4.242483840000006) scale(3.08) translate(-629.93507 31.640752)"> <path class="c1" d="M116.0751,97.8764L114.365,93.832l-0.0271-0.0638l-0.0054-0.0127l-0.0227-0.0532l-0.0054-0.0119 l-0.0271-0.0621l-0.0057-0.0139l-0.0184-0.0417l-0.0155-0.0347l-0.0067-0.0156c-0.42471-0.9465-0.9411-1.8494-1.5418-2.6956h-0.001 l-28.5481,11.7923c0.4275,2.6113,1.51711,5.0693,3.1648,7.1399L116.0751,97.8764z" transform="translate(546.01017 -115.797152)" stroke-width="0" stroke-linejoin="miter" stroke-miterlimit="2" fill="#080000" stroke="#080000"></path> <path class="c3" d="M100.0834,106.9648c-1.2924,0.0464-2.5696-0.2903-3.6713-0.9676l-0.2869,0.1185l-0.0005,0.0002 l0.0001-0.0002l0.2868-0.1185c-0.0915-0.059-0.1814-0.1208-0.2694-0.1853c-1.5765-1.1504-3.49689-3.1806-3.0646-6.8845v-0.0085 c0.2644-2.4275,1.7998-4.5313,4.0312-5.5232c0.7793-0.3443,1.6224-0.5205,2.47449-0.5176 c1.5269,0.0022,3.0102,0.5103,4.2178,1.4451c0.0455,0.03851,0.0906,0.0783,0.1354,0.1194l0.0011-0.0003 c2.3178,2.1238,3.3523,7.04,3.3567,7.0623l8.78081-3.6282L114.365,93.832l-0.0271-0.0638l-0.0054-0.0127l-0.0227-0.0532 l-0.0054-0.0119l-0.0271-0.0621l-0.0057-0.0139l-0.0184-0.0417l-0.0155-0.0347l-0.0067-0.0156 c-0.0174-0.0386-0.04-0.0747-0.0577-0.1133c-0.1779-0.3896-0.37251-0.76781-0.5788-1.1377 c-0.0625-0.1118-0.1289-0.2209-0.194-0.331c-0.1911-0.324-0.3924-0.6392-0.6044-0.9463c-0.0377-0.0545-0.0685-0.1133-0.1069-0.1673 h-0.001l-0.0056,0.0025c-2.9332-4.1358-7.7213-6.6785-12.9175-6.6714l0.0038-0.0015c-8.7462,0.0095-15.8342,7.0974-15.844,15.8435 c0,0.8943,0.0913,1.7622,0.2313,2.6123l-0.0161,0.0069c0.0216,0.1318,0.0522,0.2612,0.0772,0.3921 c0.0239,0.1254,0.0469,0.2507,0.0737,0.375c0.0923,0.4272,0.2004,0.8496,0.328,1.2661c0.034,0.1111,0.0733,0.219,0.1096,0.3288 c0.1137,0.3435,0.2392,0.6824,0.3765,1.0166c0.0439,0.10719,0.0842,0.2159,0.13039,0.32159 c0.1686,0.38551,0.3552,0.7627,0.5547,1.1333c0.066,0.12251,0.1353,0.2426,0.2045,0.3632 c0.18121,0.3162,0.37251,0.6265,0.5762,0.9297c0.0479,0.0713,0.0914,0.1458,0.1405,0.2163 c0.189,0.2715,0.3868,0.5374,0.5935,0.7972l0.0004-0.00031c0.0001,0,0.0001,0,0.0001,0.00031l0.0127-0.0052 c-0.0001-0.0002-0.0002-0.0002-0.0002-0.0002l0.0005,0.0002h-0.0003c2.9622,3.7222,7.6069,6.0899,12.9365,6.0899 c4.7249,0,8.5142-1.5076,12.6639-5.0403l-5.64301-6.6314C104.7037,106.36,102.6952,106.9648,100.0834,106.9648z" transform="translate(546.01017 -115.797152)" stroke-width="0" stroke-linejoin="miter" stroke-miterlimit="2" fill="#838383" stroke="#838383"></path> <path class="c2" d="M112.6825,90.8293l-8.74651,3.6128c0.00021,0.0002,0.00031,0.0002,0.0005,0.0005l0.0011-0.0003 c2.3143,2.1206,3.3488,7.0239,3.3564,7.0608l8.78111-3.62669L114.365,93.832l-0.0271-0.0638l-0.0054-0.0127l-0.0227-0.0532 l-0.0054-0.0119l-0.0271-0.0621l-0.0057-0.0139l-0.0184-0.0417l-0.0155-0.0347l-0.0067-0.0156 c-0.0174-0.0386-0.04-0.0747-0.0577-0.1133c-0.1363-0.2983-0.2898-0.58501-0.4433-0.8716 c-0.047-0.0879-0.08691-0.1792-0.1356-0.2663c-0.0624-0.1116-0.1288-0.2207-0.1939-0.3308 c-0.12939-0.2195-0.2704-0.4292-0.4094-0.6409c-0.1028-0.1563-0.1936-0.3201-0.3019-0.4727h-0.001l-0.0056,0.0025H112.6825z" transform="translate(546.01017 -115.797152)" stroke-width="0" stroke-linejoin="miter" stroke-miterlimit="2" fill="#454141" stroke="#454141"></path> <path class="c2" d="M87.3054,109.7587l0.0125-0.0051l0,0l0,0l9.0945-3.7561c-0.0001,0-0.0002-0.0003-0.0003-0.0003 l-0.2869,0.1185l-0.0005,0.0002l0.0001-0.0002l0.2868-0.1185c-0.0915-0.059-0.1814-0.1208-0.2694-0.1853 c-1.5765-1.1504-3.49689-3.1806-3.0646-6.8845v-0.0002l-8.9375,3.6919c0.0216,0.1318,0.0522,0.2612,0.0772,0.3921 c0.003,0.0161,0.0064,0.0319,0.0094,0.0481c0.0212,0.1093,0.041,0.21889,0.0645,0.3276c0.0922,0.427,0.2003,0.8491,0.3278,1.2654 c0.034,0.1111,0.0733,0.219,0.1096,0.3288c0.1137,0.3435,0.2392,0.6824,0.3765,1.0166 c0.0439,0.10719,0.0842,0.2159,0.13039,0.32159c0.1686,0.38551,0.3551,0.7627,0.5546,1.1333 c0.007,0.0127,0.0146,0.0254,0.0217,0.0385c0.0596,0.1089,0.121,0.2168,0.1829,0.32471c0.1811,0.31599,0.3722,0.626,0.5757,0.92899 c0.0483,0.0718,0.092,0.1465,0.1414,0.21751c0.1888,0.27129,0.3865,0.53709,0.5931,0.7967l0.0004-0.00031H87.3054z" transform="translate(546.01017 -115.797152)" stroke-width="0" stroke-linejoin="miter" stroke-miterlimit="2" fill="#454141" stroke="#454141"></path> </g>
                </g>
      <image xlink:href="" id="icon" x="0" y="0" style="display: none;"></image>
    </g>
  </g>
</svg>